<?xml version="1.0" encoding="utf-8"?>
<!-- Generator: Adobe Illustrator 16.0.3, SVG Export Plug-In . SVG Version: 6.00 Build 0)  -->
<svg version="1.2" baseProfile="tiny" id="_x2026_add-on__x22_p_x22_"
	 xmlns="http://www.w3.org/2000/svg" xmlns:xlink="http://www.w3.org/1999/xlink" x="0px" y="0px" width="346.437px"
	 height="73.648px" viewBox="0 386.443 346.437 73.648" xml:space="preserve">
<g>
	<path fill="#FFFFFF" d="M24.74,436.675H10.487l16.696-23.417c0.51-0.712,0.917-1.527,0.917-2.443c0-2.24-1.731-4.072-3.971-4.072
		H3.868c-2.239,0-3.563,1.629-3.563,3.563c0,2.036,1.426,3.563,3.563,3.563h13.744L0.916,437.285C0.407,438.099,0,438.914,0,439.832
		c0,2.238,1.73,4.072,3.971,4.072H24.74c2.138,0,3.563-1.527,3.563-3.564C28.303,438.304,26.877,436.675,24.74,436.675z"/>
	<path fill="#FFFFFF" d="M47.24,405.928c-9.061,0-14.763,5.905-14.763,14.762v9.163c0,8.451,5.396,14.764,14.763,14.764
		c2.749,0,8.145-0.814,11.402-2.443c1.426-0.611,1.935-1.834,1.935-3.156c0-1.936-1.425-3.463-3.461-3.463
		c-0.713,0-1.426,0.205-2.546,0.611c-1.935,0.713-4.174,1.527-7.432,1.527c-5.396,0-7.229-3.768-7.229-7.533v-1.426h17.409
		c2.952,0,4.582-2.342,4.582-4.48v-3.563C61.901,411.935,56.198,405.928,47.24,405.928z M54.366,421.81H39.909v-1.323
		c0-4.683,2.239-7.534,7.229-7.534c5.09,0,7.229,2.851,7.229,7.737V421.81z"/>
	<path fill="#FFFFFF" d="M110.056,405.928c-2.239,0-3.767,1.527-3.767,3.767v31.154c0,2.24,1.629,3.768,3.767,3.768
		s3.768-1.527,3.768-3.768v-31.154C113.823,407.455,112.296,405.928,110.056,405.928z"/>
	<path fill="#FFFFFF" d="M110.056,400.634c2.443,0,4.378-1.935,4.378-4.48c0-2.443-1.935-4.377-4.378-4.377
		s-4.378,1.934-4.378,4.377S107.613,400.634,110.056,400.634z"/>
</g>
<path fill="#FFFFFF" d="M69.535,429.345c-0.61-0.51-1.323-0.814-2.138-0.814c-1.935,0-3.563,1.525-3.665,3.461
	c0,1.221,0.611,2.342,1.527,2.953c0.203,0.203,2.138,1.525,4.275,2.85v18.529c0,2.24,1.63,3.768,3.768,3.768
	s3.767-1.527,3.767-3.768v-13.846c2.443,1.426,5.6,2.139,7.941,2.139c8.246,0,14.05-4.99,14.05-14.561v-9.569
	c0-9.773-5.701-14.559-14.763-14.559c-4.072,0-7.534,0.611-11.504,1.934c-2.139,0.713-3.259,2.342-3.259,4.276v15.578
	c0,0,3.869,3.258,7.025,3.969c0.407,0.104,0.509-0.102,0.509-0.711c0-0.814,0-17.105,0-17.105c2.24-0.611,4.785-0.916,7.229-0.916
	c4.684,0,7.229,2.545,7.229,7.229v10.384c0,4.785-2.443,7.229-7.229,7.229c-2.646,0-5.09-0.916-7.127-2.443"/>
<g>
	<path fill="#FFFFFF" d="M134.843,386.443h42.094l-1.5,10.234h-14.372l-7.744,47.227h-12.853l7.744-47.227h-14.963L134.843,386.443z
		"/>
	<path fill="#FFFFFF" d="M180.016,403.681h9.029l-4.038,24.828c-0.35,2.17-0.525,3.701-0.525,4.594c0,1.514,0.563,2.693,1.691,3.541
		c1.127,0.848,2.763,1.271,4.908,1.271c1.729,0,3.24-0.318,4.531-0.957c0.963-0.474,1.734-1.262,2.315-2.365
		c0.58-1.103,1.143-3.295,1.691-6.576l3.99-24.336h9.132l-3.903,24.01c-0.81,4.939-1.871,8.484-3.184,10.636
		c-1.313,2.15-3.211,3.786-5.694,4.907c-2.483,1.121-5.508,1.682-9.074,1.682c-4.813,0-8.565-1.066-11.256-3.199
		s-4.036-5.049-4.036-8.75c0-1.604,0.262-3.974,0.788-7.109L180.016,403.681z"/>
	<path fill="#FFFFFF" d="M223.854,403.681h8.383c5.175,0,8.817,0.374,10.926,1.121c2.631,0.929,4.615,2.218,5.953,3.868
		c1.337,1.649,2.006,3.603,2.006,5.862c0,2.788-0.993,5.179-2.979,7.175c-1.987,1.995-4.988,3.384-9.004,4.168l10.507,18.029h-9.384
		l-10.303-17.555h-0.742l-2.896,17.555h-9.061L223.854,403.681z M230.302,419.759c4.904-0.018,8.096-0.442,9.576-1.271
		c1.479-0.829,2.22-2.073,2.22-3.732c0-0.948-0.297-1.741-0.89-2.379c-0.594-0.638-1.452-1.084-2.573-1.34
		c-1.123-0.255-3.399-0.383-6.83-0.383L230.302,419.759z"/>
	<path fill="#FFFFFF" d="M262.343,403.681h7.488c4.557,0,7.944,0.41,10.159,1.23c2.213,0.82,3.998,2.097,5.355,3.828
		c1.355,1.732,2.033,3.601,2.033,5.605c0,1.677-0.479,3.259-1.438,4.744c-0.959,1.486-2.342,2.73-4.15,3.732
		c4.316,2.498,6.475,5.815,6.475,9.953c0,2.151-0.684,4.12-2.051,5.906c-1.367,1.787-3.057,3.104-5.07,3.951
		c-2.012,0.848-4.922,1.271-8.727,1.271h-16.669L262.343,403.681z M266.052,436.767l5.433,0.164c2.728,0,4.714-0.446,5.956-1.34
		c1.244-0.893,1.867-2.114,1.867-3.664c0-1.13-0.387-2.142-1.156-3.035c-0.771-0.893-1.797-1.521-3.076-1.887
		c-1.279-0.364-3.732-0.556-7.355-0.574L266.052,436.767z M268.814,419.65h1.623c2.423,0,4.068-0.15,4.933-0.451
		s1.602-0.861,2.207-1.682c0.607-0.82,0.91-1.731,0.91-2.734c0-0.93-0.27-1.731-0.807-2.406c-0.537-0.674-1.242-1.13-2.111-1.367
		c-0.871-0.237-2.639-0.355-5.303-0.355L268.814,419.65z"/>
	<path fill="#FFFFFF" d="M323.44,402.669c6.628,0,12.097,1.777,16.406,5.332s6.464,8.066,6.464,13.535
		c0,4.193-1.274,8.145-3.822,11.854c-2.549,3.71-5.939,6.559-10.172,8.545c-4.233,1.986-9.095,2.98-14.585,2.98
		c-6.869,0-12.354-1.695-16.456-5.086s-6.152-7.856-6.152-13.398c0-6.289,2.45-11.694,7.351-16.215
		C307.941,405.185,314.93,402.669,323.44,402.669z M323.112,409.806c-3.457,0-6.611,0.697-9.467,2.092
		c-2.854,1.395-5.157,3.4-6.906,6.016c-1.751,2.616-2.625,5.318-2.625,8.107c0,3.3,1.214,6.098,3.642,8.395
		c2.429,2.297,5.917,3.445,10.468,3.445c5.271,0,9.75-1.549,13.437-4.648c3.686-3.099,5.528-6.863,5.528-11.293
		c0-3.664-1.296-6.599-3.888-8.805C330.707,410.909,327.312,409.806,323.112,409.806z"/>
</g>
</svg>
